<?xml version="1.0" standalone="no"?>
<!DOCTYPE svg PUBLIC "-//W3C//DTD SVG 1.1//EN" "http://www.w3.org/Graphics/SVG/1.1/DTD/svg11.dtd" >
<svg xmlns="http://www.w3.org/2000/svg">
<metadata></metadata>
<defs>
<font id="PillGothicBold" horiz-adv-x="1388" >
<font-face units-per-em="2048" ascent="1638" descent="-410" />
<missing-glyph horiz-adv-x="458" />
<glyph unicode="&#xdf;" horiz-adv-x="1556" d="M53 817v230h121v151q0 135 124 225t310 90q67 0 163 -15.5t161 -35.5l-62 -217q-119 19 -221 19q-182 0 -182 -134v-83h879v-211l-261 -209h39q166 -13 250 -88t84 -185v-71q0 -126 -110.5 -211.5t-268.5 -85.5q-283 0 -407 116l112 174q58 -40 112 -55.5t124 -15.5 q60 0 99.5 28t39.5 78v25q0 52 -48.5 77t-152.5 25h-194v180l260 197h-547v-815h-303v817h-121z" />
<glyph unicode="&#xfb01;" horiz-adv-x="1513" d="M53 852v192h156v109q0 108 66 184.5t168.5 111t228.5 34.5q164 0 334 -21.5t292 -56.5l-49 -215q-274 51 -516 51q-114 0 -164.5 -34t-50.5 -111v-52h283v-192h-283v-852h-309v852h-156zM1047 0v1061h313v-1061h-313z" />
<glyph unicode="&#xfb02;" horiz-adv-x="1488" d="M41 852v192h156v109q0 82 37.5 146t102.5 103.5t147 60t175 20.5q334 0 598 -70h66v-1413h-309v1225q-138 16 -293 16q-114 0 -164.5 -34t-50.5 -111v-52h282v-192h-282v-852h-309v852h-156z" />
<glyph horiz-adv-x="2048" />
<glyph horiz-adv-x="2048" />
<glyph horiz-adv-x="682" />
<glyph unicode="&#xd;" horiz-adv-x="458" />
<glyph unicode=" "  horiz-adv-x="458" />
<glyph unicode="&#x09;" horiz-adv-x="458" />
<glyph unicode="&#xa0;" horiz-adv-x="458" />
<glyph unicode="!" horiz-adv-x="542" d="M119 1393h338l-29 -906h-281zM133 0v260h320v-260h-320z" />
<glyph unicode="&#x22;" horiz-adv-x="706" d="M113 1409h200l-14 -453h-170zM395 1409h199l-12 -453h-172z" />
<glyph unicode="#" horiz-adv-x="1359" d="M76 238l4 172h246l67 391h-237l4 172h274l47 262h219l-47 -262h221l50 262h215l-45 -262h192l-6 -172h-225l-70 -391h213l-4 -172h-250l-35 -238h-223l39 238h-221l-37 -238h-221l39 238h-209zM545 410h221l70 391h-220z" />
<glyph unicode="$" horiz-adv-x="1482" d="M121 201l137 194q71 -65 212.5 -111t272.5 -46q77 0 140 15t107 52.5t44 93.5v74l-860 266v289q0 168 134 263t364 116v192h237v-190q234 -21 437 -149l-123 -224q-66 46 -188 83.5t-224 37.5q-307 0 -307 -145v-99l858 -266v-264q0 -114 -61.5 -198t-161.5 -130 t-234 -63v-242h-237v238q-173 11 -318 65.5t-229 147.5z" />
<glyph unicode="%" horiz-adv-x="1540" d="M74 1024v154q0 110 90.5 172.5t224.5 62.5q125 0 217 -65.5t92 -169.5v-154q0 -110 -89.5 -174t-219.5 -64q-141 0 -228 61t-87 177zM188 0l906 1393h254l-895 -1393h-265zM293 1051q0 -40 24 -56t72 -16q36 0 66 21t30 53v102q0 32 -28 49t-68 17q-38 0 -67 -20.5 t-29 -51.5v-98zM864 201v192q0 109 83.5 168.5t217.5 59.5q80 0 146.5 -23t110.5 -74.5t44 -124.5v-184q0 -112 -83.5 -171.5t-217.5 -59.5q-122 0 -211.5 59.5t-89.5 157.5zM1069 348l4 -102q0 -33 26.5 -54.5t65.5 -21.5q36 0 66.5 23t30.5 55v102q0 37 -27 56.5t-70 19.5 q-39 0 -67.5 -23t-28.5 -55z" />
<glyph unicode="&#x26;" horiz-adv-x="1662" d="M51 356q0 106 90.5 201.5t288.5 204.5l-221 178v193q0 84 62.5 149.5t165.5 99t227 33.5q228 0 360.5 -88t132.5 -252q0 -92 -66.5 -169.5t-187.5 -149.5l-37 -21l264 -209l285 238l197 -178l-269 -228l279 -219l-203 -172l-276 221l-6 -6q-205 -202 -519 -202 q-268 0 -417.5 94t-149.5 282zM369 365q0 -66 59.5 -102t159.5 -36q97 0 174 27t170 104l-301 242q-150 -88 -206 -137t-56 -98zM494 1028l172 -137l65 37q64 37 101.5 71t37.5 72q0 56 -52 84.5t-146 28.5q-77 0 -127.5 -24t-50.5 -66v-66z" />
<glyph unicode="'" horiz-adv-x="524" d="M143 1454h238l-33 -491h-172z" />
<glyph unicode="(" horiz-adv-x="753" d="M94 246v616q0 237 100 420.5t267 278.5l133 -115q-104 -66 -169 -219t-65 -365v-616q0 -221 64 -367.5t170 -214.5l-133 -115q-167 95 -267 278t-100 419z" />
<glyph unicode=")" horiz-adv-x="798" d="M84 -350q105 72 169 229t64 373v608q0 217 -56.5 366t-158.5 220l115 117q167 -95 267 -280.5t100 -422.5v-608q0 -236 -100 -421t-267 -280z" />
<glyph unicode="*" horiz-adv-x="841" d="M96 1165l41 129l213 -65v211h142v-213l210 67l41 -129l-204 -63l131 -170l-117 -82l-131 172l-131 -172l-115 80l129 172z" />
<glyph unicode="+" horiz-adv-x="1204" d="M66 692v203h417v375h238v-375h420v-203h-420v-426h-238v426h-417z" />
<glyph unicode="," horiz-adv-x="481" d="M53 -207q26 36 41.5 65t30 84.5t14.5 123.5v127h258v-56q0 -86 -18 -158t-50 -123t-58 -80t-60 -59z" />
<glyph unicode="-" horiz-adv-x="761" d="M96 481v240h568v-240h-568z" />
<glyph unicode="." horiz-adv-x="520" d="M109 0v260h301v-260h-301z" />
<glyph unicode="/" horiz-adv-x="880" d="M-4 -174l577 1567h267l-586 -1567h-258z" />
<glyph unicode="0" horiz-adv-x="1531" d="M117 459v465q0 148 87 260.5t233 170.5t327 58q184 0 330.5 -58.5t232.5 -170.5t86 -260v-465q0 -111 -50.5 -202t-138.5 -151.5t-206 -93t-254 -32.5q-180 0 -325.5 56t-233.5 166.5t-88 256.5zM428 477q0 -118 93.5 -181t242.5 -63q150 0 244 63t94 181v430 q0 115 -101.5 182.5t-236.5 67.5q-153 0 -244.5 -66t-91.5 -184v-430z" />
<glyph unicode="1" horiz-adv-x="880" d="M82 1137v256h594v-1393h-314v1137h-280z" />
<glyph unicode="2" horiz-adv-x="1382" d="M98 1165q283 236 656 236q229 0 376.5 -101.5t147.5 -281.5q0 -164 -105.5 -268.5t-336.5 -184.5q-122 -42 -200.5 -79t-120 -76t-57.5 -74t-20 -84h865v-252h-1190v139q0 229 132 381t429 252q178 64 235.5 105.5t57.5 115.5q0 70 -64.5 111t-187.5 41 q-117 0 -248.5 -51.5t-233.5 -128.5z" />
<glyph unicode="3" horiz-adv-x="1435" d="M80 317l262 103q43 -89 143.5 -134.5t216.5 -45.5q59 0 112.5 8.5t102 26.5t77 52t28.5 79v43q0 161 -270 161h-297v232h301q108 0 180 32t72 99v33q0 44 -24.5 76.5t-68 49.5t-94 25t-110.5 8q-106 0 -200.5 -44.5t-137.5 -121.5l-244 117q65 137 231 221t379 84 q127 0 232 -23.5t183 -70.5t121.5 -121.5t43.5 -171.5v-26q0 -102 -70.5 -176t-189.5 -107q117 -31 195.5 -112t78.5 -187v-37q0 -102 -49 -181t-133 -126.5t-189 -71.5t-225 -24q-248 0 -422.5 88t-234.5 243z" />
<glyph unicode="4" horiz-adv-x="1452" d="M47 266v195l776 932h369v-871h235v-256h-235v-266h-311v266h-834zM412 522h469v541h-29z" />
<glyph unicode="5" horiz-adv-x="1419" d="M129 332l289 74q16 -66 108 -119.5t211 -53.5t198 45.5t79 135.5v67q0 81 -74.5 122.5t-206.5 41.5h-522l72 748h960v-256h-692l-25 -254h230q97 0 179.5 -12t155 -40t123 -71.5t80 -110t29.5 -151.5v-103q0 -127 -81 -223.5t-208 -144t-276 -47.5q-253 0 -421.5 93 t-207.5 259z" />
<glyph unicode="6" horiz-adv-x="1433" d="M111 412v538q0 136 79 242t218.5 163.5t316.5 57.5q165 0 286.5 -27.5t239.5 -89.5l-104 -225q-190 90 -406 90q-143 0 -230 -58t-87 -153v-196q57 72 159.5 116.5t221.5 44.5q155 0 273.5 -42.5t188.5 -132.5t70 -216v-112q0 -101 -53 -184.5t-142.5 -136.5t-202 -82 t-234.5 -29q-116 0 -222.5 29t-189.5 82t-132.5 136.5t-49.5 184.5zM424 436q0 -95 84 -150t197 -55q80 0 151.5 23t120.5 71t49 111v72q0 87 -89 137.5t-230 50.5q-121 0 -202 -51.5t-81 -136.5v-72z" />
<glyph unicode="7" horiz-adv-x="1247" d="M33 1118v275h1134v-172l-536 -1221h-330l520 1118h-788z" />
<glyph unicode="8" horiz-adv-x="1425" d="M117 375v55q0 60 22.5 110.5t62 85.5t83 59t96.5 42q-107 32 -172.5 113.5t-65.5 183.5v41q0 112 82.5 194.5t213.5 122t290 39.5q117 0 221.5 -23t187 -66t131 -112t48.5 -155v-53q0 -91 -75 -173t-165 -112q43 -16 74 -30t70.5 -39.5t64.5 -55t42.5 -74.5t17.5 -98v-55 q0 -98 -50 -175t-136.5 -124t-196 -71.5t-234.5 -24.5q-175 0 -310.5 42t-218.5 132.5t-83 220.5zM428 399q0 -60 45.5 -99t109.5 -53t146 -14q57 0 108 8.5t95.5 26t71 49t26.5 74.5v74q0 46 -46 81.5t-109.5 51.5t-129.5 16h-28q-74 -2 -136.5 -17t-107.5 -49.5t-45 -82.5 v-66zM455 977q0 -70 78 -110.5t186 -43.5h24q73 2 129 16t95 49t39 89v53q0 44 -42 75.5t-103 45.5t-132 14q-111 0 -192.5 -35.5t-81.5 -99.5v-53z" />
<glyph unicode="9" horiz-adv-x="1435" d="M96 893v104q0 125 88.5 222t226.5 145.5t298 48.5q158 0 296.5 -48.5t228 -145.5t89.5 -222v-604q0 -96 -52 -176t-138.5 -131t-196 -78.5t-227.5 -27.5q-155 0 -301 37.5t-254 105.5l102 207q190 -97 451 -97q152 0 244.5 53.5t92.5 159.5v134q-60 -60 -162 -91.5 t-214 -31.5q-165 0 -293.5 50t-203.5 150t-75 236zM408 893q0 -96 91 -147.5t216 -51.5q120 0 207.5 52.5t87.5 146.5v70q0 92 -90 143t-211 51q-79 0 -146 -21t-111 -66t-44 -107v-70z" />
<glyph unicode=":" horiz-adv-x="622" d="M168 0v279h303v-279h-303zM168 788v277h303v-277h-303z" />
<glyph unicode=";" horiz-adv-x="681" d="M188 -207q26 36 41.5 65t30 84.5t14.5 123.5v127h258v-56q0 -86 -18 -158t-50 -123t-58 -80t-60 -59zM238 778v287h284v-287h-284z" />
<glyph unicode="&#x3c;" horiz-adv-x="1316" d="M143 516l942 569l86 -174l-639 -385l664 -358l-92 -170z" />
<glyph unicode="=" horiz-adv-x="1200" d="M106 315v207h984v-207h-984zM106 743v207h984v-207h-984z" />
<glyph unicode="&#x3e;" horiz-adv-x="1308" d="M135 899l113 174l948 -524l-938 -565l-111 172l625 381z" />
<glyph unicode="?" horiz-adv-x="1210" d="M68 1266q107 64 241.5 105.5t265.5 41.5q121 0 216.5 -18t167 -55.5t109.5 -98.5t38 -143v-45q0 -47 -18 -89t-52 -77t-66 -59.5t-75 -51.5q-72 -41 -110.5 -71t-61.5 -71.5t-23 -96.5v-80h-301v114q0 79 46 149.5t139 119.5q99 54 149.5 95t50.5 83v37q0 100 -245 100 q-91 0 -199.5 -28.5t-177.5 -67.5zM383 0v260h352v-260h-352z" />
<glyph unicode="@" horiz-adv-x="1703" d="M106 543q0 162 27 288q22 126 84 237t155 193.5t221.5 130.5t274.5 48q207 0 372 -74t257 -206t92 -298q0 -118 -20 -210.5t-62 -161.5t-112.5 -105.5t-165.5 -36.5q-35 0 -68 5t-69.5 16.5t-63.5 36t-37 59.5q-47 -59 -127.5 -100t-165.5 -41q-127 0 -191.5 53.5 t-64.5 138.5q0 55 19 157.5t57 205.5q40 116 158 189t242 73q122 0 198 -53t76 -140q0 -25 -4.5 -53.5t-13.5 -67t-13 -59.5q-20 -133 -20 -176t24 -71.5t64 -28.5q198 0 198 372q0 192 -156.5 314t-402.5 122q-231 0 -385 -134.5t-186 -342.5q-27 -191 -27 -276 q0 -185 154.5 -301.5t439.5 -116.5q162 0 330 86l76 -125q-188 -102 -406 -102q-182 0 -327.5 42.5t-239 117.5t-142.5 175.5t-49 219.5zM645 586q0 -111 105 -111q77 0 136.5 51t71.5 129q2 12 12.5 57.5t15 68t9 57.5t4.5 61q0 92 -108 92q-76 0 -139.5 -66t-77.5 -145 q-8 -34 -15 -81t-10.5 -77t-3.5 -36z" />
<glyph unicode="A" horiz-adv-x="1583" d="M53 0l563 1403h347l563 -1403h-346l-119 303h-543l-119 -303h-346zM578 541h423l-210 555z" />
<glyph unicode="B" horiz-adv-x="1517" d="M160 0v1393h692q229 0 365.5 -100t136.5 -269v-37q0 -79 -63.5 -156t-164.5 -108q133 -41 206 -119t73 -190v-64q0 -168 -136 -259t-370 -91h-739zM471 238h383q114 0 176 32.5t62 114.5v61q0 73 -68 113.5t-168 40.5h-385v-362zM471 819h375q91 0 144.5 39t53.5 111v37 q0 81 -60 114t-177 33h-336v-334z" />
<glyph unicode="C" d="M135 496v403q0 155 89 273.5t235 179.5t321 61q177 0 301 -32t240 -107l-115 -225q-173 100 -405 100q-148 0 -251.5 -72t-103.5 -196v-369q0 -136 97 -203t260 -67q251 0 399 94l105 -232q-111 -68 -228.5 -96t-296.5 -28q-141 0 -258.5 32.5t-204.5 96t-135.5 162.5 t-48.5 225z" />
<glyph unicode="D" horiz-adv-x="1581" d="M160 0v1393h653q190 0 329.5 -56t221.5 -177.5t82 -299.5v-330q0 -133 -50.5 -236t-140.5 -166.5t-207 -95.5t-257 -32h-631zM467 254h324q71 0 132 19t109.5 57t76.5 103t28 151v223q0 163 -90 246.5t-234 83.5h-346v-883z" />
<glyph unicode="E" horiz-adv-x="1386" d="M160 0v1393h1085v-256h-774v-306h649v-247h-649v-330h817v-254h-1128z" />
<glyph unicode="F" horiz-adv-x="1312" d="M160 0v1393h1083v-256h-774v-310h649v-245h-649v-582h-309z" />
<glyph unicode="G" horiz-adv-x="1591" d="M135 492v409q0 121 56 219.5t152.5 161.5t223.5 97t273 34q305 0 567 -141l-109 -225q-106 56 -209.5 83t-234.5 27q-116 0 -206.5 -31t-146 -98t-55.5 -162v-340q0 -77 29.5 -135t82 -92t118 -50t145.5 -16q95 0 165 13t155 43v264h-277v238h590v-658 q-283 -153 -633 -153q-145 0 -269 32.5t-217.5 95t-146.5 161t-53 223.5z" />
<glyph unicode="H" horiz-adv-x="1720" d="M160 0v1393h311v-582h774v582h314v-1393h-314v555h-774v-555h-311z" />
<glyph unicode="I" horiz-adv-x="681" d="M184 0v1393h312v-1393h-312z" />
<glyph unicode="J" horiz-adv-x="1345" d="M39 346l303 80q10 -76 82.5 -132t187.5 -56q112 0 187 54t75 157v944h312v-965q0 -220 -146.5 -332t-416.5 -112q-253 0 -404.5 94t-179.5 268z" />
<glyph unicode="K" horiz-adv-x="1626" d="M160 0v1393h311v-627l616 627h410l-731 -676l813 -717h-432l-574 530l-102 -96v-434h-311z" />
<glyph unicode="L" horiz-adv-x="1351" d="M160 0v1393h311v-1139h836v-254h-1147z" />
<glyph unicode="M" horiz-adv-x="2093" d="M160 0v1393h323l559 -803l568 803h321v-1393h-313v977l-483 -703h-187l-477 703v-977h-311z" />
<glyph unicode="N" horiz-adv-x="1679" d="M160 0v1393h295l776 -979v979h289v-1393h-295l-776 985v-985h-289z" />
<glyph unicode="O" horiz-adv-x="1638" d="M135 492v426q0 152 86.5 265.5t236.5 171.5t343 58h33q187 0 338 -59t240 -172.5t89 -263.5v-426q0 -165 -86.5 -282t-235 -173.5t-345.5 -56.5h-31q-201 0 -349.5 56t-233.5 172.5t-85 283.5zM449 526q0 -147 93 -220t261 -73h31q168 0 261 73t93 220v355q0 132 -98 204 t-256 72h-33q-158 0 -255 -73.5t-97 -200.5v-357z" />
<glyph unicode="P" horiz-adv-x="1519" d="M160 0v1393h721q246 0 391 -107t145 -303v-129q0 -124 -72.5 -212.5t-191 -130.5t-270.5 -42h-412v-469h-311zM471 707h389q111 0 179.5 45t68.5 137v59q0 88 -67 138.5t-181 50.5h-389v-430z" />
<glyph unicode="Q" horiz-adv-x="1660" d="M135 492v426q0 152 86.5 265.5t236.5 171.5t343 58h33q187 0 338 -59t240 -172.5t89 -263.5v-426q0 -199 -127 -332l172 -154l-145 -119l-187 164q-157 -71 -380 -71h-31q-201 0 -349.5 56t-233.5 172.5t-85 283.5zM449 526q0 -147 93 -220t261 -73h31q87 0 155 21 l-155 139l143 123l168 -151q43 68 43 161v355q0 132 -98 204t-256 72h-33q-158 0 -255 -73.5t-97 -200.5v-357z" />
<glyph unicode="R" horiz-adv-x="1531" d="M160 0v1393h737q246 0 388 -102.5t142 -301.5v-47q0 -140 -82.5 -231t-226.5 -129l355 -582h-340l-308 514h-354v-514h-311zM471 752h410q98 2 165.5 44t67.5 122v51q0 80 -64.5 124t-172.5 44h-406v-385z" />
<glyph unicode="S" horiz-adv-x="1482" d="M119 205l123 205q253 -172 524 -172q268 0 268 159q0 50 -25 80.5t-99 56t-216 46.5q-286 45 -414 137q-129 93 -128 272q0 101 48 181q48 82 130.5 134t186.5 79.5t218 27.5q171 0 311.5 -40t286.5 -132l-116 -225q-134 77 -242 108t-240 31q-126 0 -194 -45.5 t-68 -118.5q0 -47 27 -77t98.5 -52.5t202.5 -38.5q133 -17 229.5 -45t173 -75t114.5 -119q40 -74 40 -175q0 -134 -81 -231q-82 -98 -214 -145t-297 -47q-178 0 -356.5 59.5t-290.5 161.5z" />
<glyph unicode="T" horiz-adv-x="1449" d="M43 1135v258h1362v-258h-531v-1135h-311v1135h-520z" />
<glyph unicode="U" horiz-adv-x="1681" d="M160 504v889h309v-854q0 -100 52.5 -171t134 -103t182.5 -32q156 0 263 80t107 226v854h314v-889q0 -127 -54.5 -228.5t-148.5 -165t-215.5 -97t-261.5 -33.5q-143 0 -265.5 33t-216.5 96.5t-147 165t-53 229.5z" />
<glyph unicode="V" horiz-adv-x="1603" d="M51 1393h338l408 -1047l415 1047h340l-594 -1393h-325z" />
<glyph unicode="W" horiz-adv-x="2263" d="M82 1393h321l254 -1037l334 1037h281l338 -1041l248 1041h321l-369 -1393h-344l-338 995l-329 -995h-344z" />
<glyph unicode="X" horiz-adv-x="1544" d="M49 0l543 694l-516 699h370l332 -469l348 469h369l-532 -701l530 -692h-371l-346 463l-354 -463h-373z" />
<glyph unicode="Y" horiz-adv-x="1632" d="M80 1393h379l354 -584l356 584h381l-581 -881v-512h-316v514z" />
<glyph unicode="Z" horiz-adv-x="1460" d="M102 0v186l826 947h-815v260h1239v-185l-820 -950h816v-258h-1246z" />
<glyph unicode="[" horiz-adv-x="622" d="M160 -324v1717h413v-197h-151v-1327h141v-193h-403z" />
<glyph unicode="\" horiz-adv-x="1157" d="M72 1393h270l797 -1393h-267z" />
<glyph unicode="]" horiz-adv-x="618" d="M104 -123h142v1307h-142v209h406v-1715h-406v199z" />
<glyph unicode="^" horiz-adv-x="960" d="M102 834l381 579l373 -577l-154 -70l-219 342l-219 -342z" />
<glyph unicode="_" horiz-adv-x="1222" d="M102 -70h1016v-172h-1016v172z" />
<glyph unicode="`" horiz-adv-x="614" d="M86 1393l197 106l223 -315l-139 -82z" />
<glyph unicode="a" horiz-adv-x="1351" d="M111 311v238l815 86v35q0 70 -67.5 105.5t-190.5 35.5q-85 0 -201 -27t-209 -59l-88 205q103 56 251.5 95.5t270.5 39.5q254 0 398.5 -101.5t144.5 -293.5v-670h-252l-29 100q-115 -112 -385 -112q-222 0 -340 85t-118 238zM422 348q0 -133 225 -133q62 0 122.5 15 t104.5 46.5t44 73.5v96l-496 -59v-39z" />
<glyph unicode="b" horiz-adv-x="1464" d="M158 0v1413h309v-500q140 152 385 152q243 0 371.5 -114t128.5 -318v-217q0 -206 -128 -319t-372 -113q-111 0 -217.5 39.5t-169.5 113.5l-49 -137h-258zM467 408q0 -94 81 -142.5t204 -48.5q138 0 213 49.5t75 163.5v180q0 98 -80.5 156.5t-197.5 58.5 q-129 0 -212 -49.5t-83 -148.5v-219z" />
<glyph unicode="c" horiz-adv-x="1247" d="M131 414v213q0 202 162.5 320t423.5 118q144 0 244.5 -25.5t201.5 -81.5l-100 -223q-139 74 -320 74q-132 0 -215.5 -59t-83.5 -158v-143q0 -106 87.5 -161t226.5 -55q177 0 323 64l84 -215q-158 -102 -438 -102q-273 0 -434.5 111t-161.5 323z" />
<glyph unicode="d" horiz-adv-x="1445" d="M111 416v217q0 204 129 318t374 114q115 0 215.5 -38.5t167.5 -113.5v500h310v-1413h-260l-48 137q-63 -74 -169 -113.5t-216 -39.5q-246 0 -374.5 113t-128.5 319zM424 430q0 -114 75.5 -163.5t213.5 -49.5q124 0 203 48t79 143v219q0 99 -83 148.5t-212 49.5 q-115 0 -195.5 -58.5t-80.5 -156.5v-180z" />
<glyph unicode="e" d="M111 385v297q0 112 86 201t221.5 135.5t290.5 46.5q151 0 279 -45.5t208 -134.5t80 -203v-240h-852v-36q0 -61 42 -101.5t110.5 -57t162.5 -16.5q249 0 426 72l92 -207q-211 -108 -538 -108q-122 0 -230 25.5t-193 73.5t-135 125t-50 173zM426 637h561v25 q0 53 -42.5 91.5t-104 56t-131.5 17.5q-67 0 -130 -19t-106.5 -57.5t-46.5 -88.5v-25z" />
<glyph unicode="f" horiz-adv-x="868" d="M45 852v192h164v113q0 99 62.5 170t159.5 103t216 32q204 0 357 -39l-54 -225q-125 23 -260 23q-75 0 -122.5 -26t-47.5 -79v-72h336v-192h-336v-852h-311v852h-164z" />
<glyph unicode="g" horiz-adv-x="1441" d="M94 -186q0 155 176 221q-110 50 -110 149q0 46 43.5 102t113.5 79q-153 93 -153 280v39q0 127 73.5 214.5t197 127t288.5 39.5q174 0 301 -51l295 98l76 -178l-187 -51q68 -87 68 -197v-59q0 -94 -41.5 -163t-118 -109.5t-173.5 -59.5t-218 -19q-123 0 -238 23 q-30 -34 -30 -59q0 -30 23.5 -54t62.5 -28l764 -80v-232q0 -80 -42 -141t-115.5 -97t-164.5 -53.5t-197 -17.5h-202q-101 0 -187.5 16t-155.5 48t-109 87t-40 126zM393 -143q0 -101 209 -101h178q212 0 215 109v43l-526 51q-36 -12 -56 -39t-20 -63zM481 614q0 -67 69 -100 t175 -33q101 0 169.5 32t68.5 101v54q-1 45 -37 79t-89.5 50t-113.5 16q-99 0 -170.5 -39t-71.5 -106v-54z" />
<glyph unicode="h" horiz-adv-x="1454" d="M139 0v1413h314v-565q54 93 174 155t247 62q231 0 337 -106t106 -312v-647h-311v631q0 86 -64.5 132t-171.5 46q-122 0 -219.5 -55.5t-97.5 -135.5v-618h-314z" />
<glyph unicode="i" horiz-adv-x="634" d="M160 1210v203h313v-203h-313zM162 0v1044h311v-1044h-311z" />
<glyph unicode="j" horiz-adv-x="679" d="M-190 -203q217 29 307 98.5t90 227.5v921h309v-956q0 -237 -165 -368.5t-484 -153.5zM205 1208v205h311v-205h-311z" />
<glyph unicode="k" horiz-adv-x="1363" d="M139 0v1413h314v-727h84l370 358h393l-507 -489l553 -555h-408l-403 426h-82v-426h-314z" />
<glyph unicode="l" horiz-adv-x="634" d="M162 0v1413h309v-1413h-309z" />
<glyph unicode="m" horiz-adv-x="2152" d="M139 0v1044h234l24 -182q55 87 165 145t226 58q151 0 250.5 -52t126.5 -157q48 83 175 147t249 64q219 0 322.5 -84.5t103.5 -265.5v-717h-311v637q0 91 -46.5 132.5t-164.5 41.5q-112 0 -187 -61.5t-75 -143.5v-606h-313v637q0 92 -47.5 136t-161.5 44 q-105 0 -180.5 -64.5t-75.5 -140.5v-612h-314z" />
<glyph unicode="n" horiz-adv-x="1470" d="M139 0v1044h244l31 -182q175 203 440 203q479 0 479 -414v-651h-311v614q0 197 -270 197q-116 0 -207.5 -56t-91.5 -137v-618h-314z" />
<glyph unicode="o" horiz-adv-x="1423" d="M111 418v211q0 200 169 318t437 118q272 0 432 -117t160 -319v-211q0 -133 -84 -234t-217.5 -151.5t-292.5 -50.5q-166 0 -302 50.5t-219 151t-83 234.5zM424 453q0 -104 83 -162t208 -58q117 0 199.5 59t82.5 161v141q0 102 -82 158.5t-198 56.5q-122 0 -207.5 -59 t-85.5 -156v-141z" />
<glyph unicode="p" horiz-adv-x="1445" d="M139 -438v1482h258l52 -139q62 74 169 115t216 41q244 0 371.5 -113.5t127.5 -320.5v-217q0 -204 -127.5 -317t-371.5 -113q-251 0 -383 149v-567h-312zM453 416q0 -99 81.5 -149t208.5 -50q117 0 198 58.5t81 156.5v180q0 213 -287 213q-124 0 -203 -47.5t-79 -142.5 v-219z" />
<glyph unicode="q" horiz-adv-x="1445" d="M111 410v217q0 207 128.5 320.5t374.5 113.5q109 0 215.5 -40.5t169.5 -115.5l48 139h260v-1482h-310v567q-66 -75 -166.5 -112t-216.5 -37q-246 0 -374.5 113t-128.5 317zM424 432q0 -98 80.5 -156.5t195.5 -58.5q129 0 212 50t83 149v219q0 95 -79 142.5t-203 47.5 q-138 0 -213.5 -49.5t-75.5 -163.5v-180z" />
<glyph unicode="r" horiz-adv-x="948" d="M141 0v1044h242l47 -161q40 75 130 128.5t188 53.5q101 0 161 -16l-49 -277q-54 14 -153 14q-104 0 -179 -47.5t-75 -130.5v-608h-312z" />
<glyph unicode="s" horiz-adv-x="1234" d="M72 121l98 209q78 -44 211 -80.5t235 -36.5q246 0 246 96q0 48 -62.5 66t-236.5 35q-131 14 -221 41.5t-141.5 70.5t-73 95t-21.5 122q0 103 73 178.5t184.5 110.5t244.5 35q139 0 277 -31.5t233 -87.5l-98 -199q-167 80 -373 80q-241 0 -241 -96q0 -49 53.5 -66 t218.5 -30q265 -28 368 -97.5t103 -218.5q0 -85 -42.5 -151.5t-116.5 -106t-164.5 -59.5t-194.5 -20q-139 0 -287.5 36t-271.5 105z" />
<glyph unicode="t" horiz-adv-x="1019" d="M18 850v194h177v240h309v-240h358v-194h-358v-457q0 -151 162 -151q67 0 132 8t93.5 15t38.5 11l49 -229q-185 -59 -399 -59q-387 0 -387 360v502h-175z" />
<glyph unicode="u" horiz-adv-x="1447" d="M133 416v628h313v-593q0 -104 78 -161t201 -57q117 0 199 60t82 158v593h309v-628q0 -135 -80.5 -235.5t-213 -150.5t-296.5 -50q-168 0 -300.5 50t-212 150t-79.5 236z" />
<glyph unicode="v" horiz-adv-x="1374" d="M39 1044h330l303 -739l334 739h327l-516 -1044h-297z" />
<glyph unicode="w" horiz-adv-x="1808" d="M59 1044h303l183 -737l233 737h248l250 -731l170 731h301l-320 -1044h-290l-230 715l-223 -715h-301z" />
<glyph unicode="x" horiz-adv-x="1349" d="M35 0l465 514l-449 530h373l252 -323l250 323h381l-459 -530l465 -514h-389l-248 299l-250 -299h-391z" />
<glyph unicode="y" horiz-adv-x="1353" d="M55 1044h330l277 -739l303 739h329l-522 -1167q-79 -176 -221.5 -252.5t-366.5 -79.5l-34 232q128 2 215 40.5t118 114.5l21 54z" />
<glyph unicode="z" horiz-adv-x="1220" d="M92 0v166l615 647h-607v231h1000v-145l-619 -661h647v-238h-1036z" />
<glyph unicode="{" horiz-adv-x="661" d="M106 600l113 100l-63 357q-28 163 66.5 304t281.5 198l119 -117q-80 -39 -128 -106.5t-62 -135.5t-5 -139l43 -367l-94 -88l98 -76l-47 -426q-14 -120 38 -224t171 -161l-127 -127q-86 32 -153 78t-108.5 98.5t-67.5 112.5t-29.5 119t4.5 119l61 401z" />
<glyph unicode="|" horiz-adv-x="493" d="M121 -301v1694h248v-1694h-248z" />
<glyph unicode="}" horiz-adv-x="698" d="M88 -279q93 48 152 115t79.5 134t10.5 134l-56 431l103 71l-96 86l49 369q16 98 -44 206t-180 173l109 110q128 -34 220.5 -117.5t130 -183.5t18.5 -192l-70 -357l123 -100l-123 -80l70 -401q18 -96 -20.5 -200.5t-133.5 -193t-225 -124.5z" />
<glyph unicode="~" horiz-adv-x="870" d="M119 1290q91 144 215 144q47 0 139 -40t127 -40q29 0 52 12t33 24t22 31l102 -73q-1 -2 -12 -21t-17.5 -28.5t-20 -28.5t-27 -30t-30.5 -23.5t-38 -18.5t-43 -6q-52 0 -149 41t-153 41q-51 0 -106 -70z" />
<glyph unicode="&#xa1;" horiz-adv-x="569" d="M139 -352l31 944h283l32 -944h-346zM154 836v229h311v-229h-311z" />
<glyph unicode="&#xa2;" horiz-adv-x="1228" d="M131 414v213q0 193 149.5 310t393.5 126l41 274l194 -30l-41 -250q141 -17 295 -99l-100 -223q-139 74 -320 74q-132 0 -215.5 -59t-83.5 -158v-143q0 -106 87.5 -161t226.5 -55q177 0 323 64l84 -215q-158 -102 -438 -102h-27l-45 -254l-186 28l41 246 q-178 38 -278.5 143t-100.5 271z" />
<glyph unicode="&#xa3;" horiz-adv-x="1196" d="M59 578v202h258l-14 172q-2 151 89 255.5t247 153.5t369 52v-256q-201 0 -297 -50.5t-95 -166.5l19 -160h379v-202h-359q10 -80 13 -117q0 -82 -9.5 -121t-46.5 -86h502v-254h-1046v156q88 7 147 29.5t88 60.5t40 80t11 100l-16 152h-279z" />
<glyph unicode="&#xa5;" horiz-adv-x="1601" d="M70 1393h379l354 -584l356 584h381l-463 -701h336v-129h-422l-33 -51v-86h453v-123h-453v-303h-315v303h-502v123h502v88l-33 49h-471v129h387z" />
<glyph unicode="&#xa6;" horiz-adv-x="387" d="M96 -213v682h195v-682h-195zM96 748v682h195v-682h-195z" />
<glyph unicode="&#xa7;" horiz-adv-x="1222" d="M106 616q0 71 43 147t103 105q-41 75 -41 187q0 113 59 195t156.5 121.5t220.5 39.5q135 0 243 -42t177 -120l-109 -143q-53 55 -137.5 88t-167.5 33q-90 0 -145 -46t-55 -128q0 -23 6 -44t20 -39.5t27 -33t38 -30.5t41 -26t48 -24t47.5 -20.5t50 -20t45.5 -18.5 q83 -34 143.5 -70.5t112 -86t77.5 -116.5t26 -149q0 -80 -38.5 -153t-107.5 -111q45 -68 45 -160q0 -188 -123 -291.5t-317 -103.5q-137 0 -254.5 52t-183.5 144l135 135q36 -57 124.5 -101t162.5 -44q46 0 81 7.5t68.5 27t51.5 59t18 96.5q0 33 -18 66t-54 63t-71 53.5 t-88.5 50t-85 40.5t-81.5 35q-79 33 -130.5 65.5t-90 76t-55.5 100.5t-17 134zM344 621q0 -29 8 -53.5t27 -45t37.5 -35.5t51.5 -31.5t55.5 -26.5t62.5 -26q14 -6 50.5 -23t54 -25t46 -22.5t52 -28.5t47.5 -30q23 6 47 39t24 58q0 35 -14.5 65t-36 51t-59.5 43.5t-69.5 36.5 t-82.5 35q-132 54 -233 123q-32 -7 -50 -38.5t-18 -65.5z" />
<glyph unicode="&#xa8;" horiz-adv-x="864" d="M119 1208v207h213v-207h-213zM532 1208v207h211v-207h-211z" />
<glyph unicode="&#xa9;" horiz-adv-x="1685" d="M96 717q0 151 57.5 285.5t157 231t238.5 152.5t295 56q155 0 293 -56.5t236.5 -153t156 -230.5t57.5 -285t-57.5 -284.5t-156 -229.5t-236.5 -151.5t-293 -55.5q-209 0 -380.5 94t-269.5 259.5t-98 367.5zM246 715q0 -122 46 -230t125.5 -185t191 -122t237.5 -45 q166 0 303 76t216 210t79 296q0 163 -78.5 297t-216 211t-303.5 77q-168 0 -306 -77t-216 -211t-78 -297zM469 653v97q0 138 114.5 231.5t270.5 93.5q108 0 175 -31t142 -112l-106 -125q-37 43 -94.5 68.5t-116.5 25.5q-74 0 -127 -43t-53 -108v-97q0 -69 57.5 -111 t136.5 -42q58 0 117 23t102 63l99 -129q-55 -59 -149 -95t-181 -36q-163 0 -275 90t-112 237z" />
<glyph unicode="&#xaa;" horiz-adv-x="759" d="M96 954v133l385 54v22q0 57 -31.5 81t-93.5 24q-34 0 -89 -14.5t-81 -28.5l-57 121q119 63 238 63q136 0 212 -58.5t76 -179.5v-411h-116l-50 78q-27 -37 -78 -59.5t-98 -22.5q-101 0 -159 52t-58 146zM272 963q0 -27 31 -45.5t64 -18.5q37 0 72.5 19t35.5 49v67 l-203 -26v-45z" />
<glyph unicode="&#xab;" horiz-adv-x="1009" d="M96 356l336 371l82 -82l-201 -285l201 -272l-82 -88zM492 356l335 371l84 -82l-200 -285l198 -272l-82 -88z" />
<glyph unicode="&#xac;" horiz-adv-x="976" d="M96 547v172h783v-354h-179v182h-604z" />
<glyph unicode="&#xad;" horiz-adv-x="761" d="M96 481v240h568v-240h-568z" />
<glyph unicode="&#xae;" horiz-adv-x="1685" d="M96 717q0 156 55.5 290.5t153.5 230t237.5 150t301.5 54.5q212 0 382 -93.5t265.5 -259.5t95.5 -372q0 -207 -95.5 -372t-265.5 -257t-382 -92q-130 0 -246 34t-207 98.5t-157.5 152.5t-102 199.5t-35.5 236.5zM246 715q0 -255 168 -418.5t432 -163.5q260 0 429 164.5 t169 417.5q0 167 -77 300.5t-213.5 209t-307.5 75.5q-263 0 -431.5 -165.5t-168.5 -419.5zM549 334v762h358q105 0 176.5 -65t71.5 -165v-37q0 -71 -41.5 -120.5t-114.5 -73.5l197 -301h-190l-187 280h-100v-280h-170zM719 737h166q42 0 72 20.5t30 57.5v47q0 37 -31 64.5 t-71 27.5h-166v-217z" />
<glyph unicode="&#xaf;" horiz-adv-x="954" d="M119 1307v116h715v-116h-715z" />
<glyph unicode="&#xb0;" horiz-adv-x="833" d="M96 1106v51q0 115 91 183t227 73q135 -5 229 -73t94 -183v-51q0 -116 -93 -183t-230 -67q-135 0 -226.5 67t-91.5 183zM285 1090q0 -41 38 -63.5t91 -22.5q56 0 95.5 22t39.5 64v88q0 41 -40 65.5t-95 24.5q-52 0 -90.5 -25t-38.5 -65v-88z" />
<glyph unicode="&#xb1;" horiz-adv-x="1185" d="M96 0v170h994v-170h-994zM129 621v188h344v317h219v-317h361v-188h-361v-336h-219v336h-344z" />
<glyph unicode="&#xb2;" horiz-adv-x="929" d="M158 1323q47 37 138 62.5t206 25.5q132 0 212.5 -51t80.5 -158q0 -135 -168 -205q-30 -15 -88.5 -37t-88 -39.5t-36.5 -43.5h379v-170h-633v100q0 102 58.5 161t187.5 113q115 39 145 64q20 17 20 35q0 59 -116 59q-77 0 -125.5 -14.5t-108.5 -46.5z" />
<glyph unicode="&#xb3;" horiz-adv-x="800" d="M104 778l105 113q28 -34 89 -57t128 -23q60 0 94.5 15t34.5 42v19q0 39 -43.5 61.5t-97.5 22.5h-148v135h142q53 0 95 17t42 55v18q0 28 -37 40.5t-88 12.5q-66 0 -122.5 -16.5t-84.5 -42.5l-76 123q44 44 133 72t183 28q315 0 315 -203v-18q0 -55 -43 -98t-98 -58 q57 -15 103 -56t46 -93v-33q0 -60 -27.5 -102t-75.5 -64t-102 -31.5t-118 -9.5q-113 0 -209.5 35.5t-139.5 95.5z" />
<glyph unicode="&#xb4;" horiz-adv-x="608" d="M100 1169l236 324l188 -104l-280 -289z" />
<glyph unicode="&#xb6;" horiz-adv-x="1169" d="M96 1040v47q0 132 90.5 217.5t235.5 88.5h588v-1393h-156v1266h-170v-1266h-170v754h-92q-145 0 -235.5 76.5t-90.5 209.5z" />
<glyph unicode="&#xb7;" horiz-adv-x="454" d="M109 408v260h301v-260h-301z" />
<glyph unicode="&#xb8;" horiz-adv-x="585" d="M119 -440q1 0 16 6.5t24.5 11t26.5 13.5t28.5 18t23.5 20t18 24.5t6 27.5q0 52 -35 80t-106 42l39 197h168l-27 -119q18 -6 34 -13t41.5 -23.5t43.5 -36.5t31.5 -53t13.5 -72q0 -155 -275 -242z" />
<glyph unicode="&#xb9;" horiz-adv-x="602" d="M66 1198v195h444v-693h-234v498h-210z" />
<glyph unicode="&#xba;" horiz-adv-x="817" d="M96 1024v137q0 110 91 179t219 69t221.5 -69t93.5 -179v-139q0 -112 -93 -180t-222 -68q-128 0 -219 68.5t-91 181.5zM291 1042q2 -60 30 -87t89 -27q46 0 82 19.5t36 56.5v170q0 36 -35.5 56.5t-82.5 20.5q-46 0 -82.5 -23t-36.5 -59v-127z" />
<glyph unicode="&#xbb;" horiz-adv-x="999" d="M76 645l84 82l334 -371l-334 -356l-82 88l198 272zM475 88l199 272l-199 285l82 82l334 -371l-334 -356z" />
<glyph unicode="&#xbc;" horiz-adv-x="1492" d="M66 1198v195h444v-693h-234v498h-210zM117 0l905 1393h254l-895 -1393h-264zM682 137v117l356 477h289v-436h127v-158h-127v-139h-219v139h-426zM909 295h199v242h-18z" />
<glyph unicode="&#xbd;" horiz-adv-x="1409" d="M66 1198v195h444v-693h-234v498h-210zM74 0l905 1393h254l-895 -1393h-264zM768 600q47 37 138 62.5t206 25.5q132 0 212.5 -51t80.5 -158q0 -135 -168 -205q-30 -15 -88.5 -37t-88 -39.5t-36.5 -43.5h379v-170h-633v100q0 102 58.5 161t187.5 113q41 14 57 20t48.5 20.5 t46.5 28.5t14 30q0 59 -117 59q-77 0 -125.5 -14.5t-108.5 -46.5z" />
<glyph unicode="&#xbe;" horiz-adv-x="1654" d="M68 778l104 113q28 -34 89 -57t128 -23q60 0 94.5 15t34.5 42v19q0 39 -43.5 61.5t-97.5 22.5h-148v135h142q53 0 95 17t42 55v18q0 28 -37 40.5t-88 12.5q-66 0 -122.5 -16.5t-84.5 -42.5l-76 123q44 44 133 72t183 28q315 0 315 -203v-18q0 -55 -43 -98t-98 -58 q57 -15 103 -56t46 -93v-33q0 -60 -27.5 -102t-75.5 -64t-102 -31.5t-118 -9.5q-112 0 -208.5 35.5t-139.5 95.5zM299 0l905 1393h254l-895 -1393h-264zM860 135v117l357 477h288v-436h127v-158h-127v-139h-219v139h-426zM1087 293h199v242h-18z" />
<glyph unicode="&#xbf;" horiz-adv-x="923" d="M41 14q0 24 4.5 46.5t9.5 39.5t17.5 37.5t19.5 31.5t25.5 31t25.5 27t30 28t28 26q78 66 107.5 114t29.5 129v84h299v-119q0 -72 -34 -130.5t-105 -118.5q-6 -6 -25 -24.5t-27.5 -27.5t-24.5 -26t-24 -28.5t-17.5 -27t-13.5 -29t-4 -26.5v-47q0 -98 142 -98q64 0 137 28 t131 66l113 -203q-90 -63 -203 -105t-221 -42q-195 0 -307.5 77t-112.5 236v51zM301 807v260h352v-260h-352z" />
<glyph unicode="&#xc0;" horiz-adv-x="1583" d="M53 0l563 1403h347l563 -1403h-346l-119 303h-543l-119 -303h-346zM508 1792l197 106l223 -315l-139 -82zM578 541h423l-210 555z" />
<glyph unicode="&#xc1;" horiz-adv-x="1583" d="M53 0l563 1403h347l563 -1403h-346l-119 303h-543l-119 -303h-346zM578 541h423l-210 555zM649 1572l236 324l188 -104l-280 -289z" />
<glyph unicode="&#xc2;" horiz-adv-x="1583" d="M53 0l563 1403h347l563 -1403h-346l-119 303h-543l-119 -303h-346zM518 1604l270 188l273 -194l-89 -105l-182 113l-184 -111zM578 541h423l-210 555z" />
<glyph unicode="&#xc3;" horiz-adv-x="1583" d="M53 0l563 1403h347l563 -1403h-346l-119 303h-543l-119 -303h-346zM447 1593q91 144 215 144q47 0 139 -40t127 -40q29 0 52 12t33 24t22 31l102 -73q-1 -2 -12 -21t-17.5 -28.5t-20 -28.5t-27 -30t-30.5 -23.5t-38 -18.5t-43 -6q-52 0 -149 41t-153 41q-51 0 -106 -70z M578 541h423l-210 555z" />
<glyph unicode="&#xc4;" horiz-adv-x="1583" d="M53 0l563 1403h347l563 -1403h-346l-119 303h-543l-119 -303h-346zM477 1516v206h213v-206h-213zM578 541h423l-210 555zM891 1516v206h211v-206h-211z" />
<glyph unicode="&#xc5;" horiz-adv-x="1583" d="M53 0l563 1403h347l563 -1403h-346l-119 303h-543l-119 -303h-346zM578 541h423l-210 555zM625 1655q0 66 47.5 111.5t113.5 45.5q70 0 119 -45t49 -112q0 -66 -49.5 -113t-118.5 -47q-65 0 -113 47t-48 113zM711 1653q0 -32 22.5 -54t54.5 -22q34 0 58 22t24 54 q0 34 -24 58t-58 24q-32 0 -54.5 -24t-22.5 -58z" />
<glyph unicode="&#xc6;" horiz-adv-x="1972" d="M-4 0l924 1393h964v-256h-526v-306h438v-237h-436v-340h569v-254h-882v305h-490l-199 -305h-362zM682 543h365v573z" />
<glyph unicode="&#xc7;" horiz-adv-x="1380" d="M135 496v403q0 155 89 273.5t235 179.5t321 61q177 0 301 -32t240 -107l-115 -225q-173 100 -405 100q-148 0 -251.5 -72t-103.5 -196v-369q0 -136 97 -203t260 -67q251 0 399 94l105 -232q-104 -64 -213 -92.5t-265 -31.5l-22 -99q18 -6 34 -13t41.5 -23.5t43.5 -36.5 t31.5 -53t13.5 -72q0 -155 -275 -242l-71 119q1 0 16 6.5t24.5 11t26.5 13.5t28.5 18t23.5 20t18 24.5t6 27.5q0 52 -35 80t-106 42l35 183q-241 26 -384 156.5t-143 353.5z" />
<glyph unicode="&#xc8;" horiz-adv-x="1386" d="M160 0v1393h1085v-256h-774v-306h649v-247h-649v-330h817v-254h-1128zM434 1780l197 106l223 -315l-139 -82z" />
<glyph unicode="&#xc9;" horiz-adv-x="1386" d="M160 0v1393h1085v-256h-774v-306h649v-247h-649v-330h817v-254h-1128zM577 1560l236 324l188 -104l-280 -289z" />
<glyph unicode="&#xca;" horiz-adv-x="1386" d="M160 0v1393h1085v-256h-774v-306h649v-247h-649v-330h817v-254h-1128zM449 1593l270 188l273 -194l-89 -105l-182 113l-184 -111z" />
<glyph unicode="&#xcb;" horiz-adv-x="1386" d="M160 0v1393h1085v-256h-774v-306h649v-247h-649v-330h817v-254h-1128zM408 1503v207h213v-207h-213zM821 1503v207h211v-207h-211z" />
<glyph unicode="&#xcc;" horiz-adv-x="681" d="M57 1780l197 106l223 -315l-139 -82zM184 0v1393h312v-1393h-312z" />
<glyph unicode="&#xcd;" horiz-adv-x="681" d="M184 0v1393h312v-1393h-312zM196 1560l236 324l188 -104l-280 -289z" />
<glyph unicode="&#xce;" horiz-adv-x="681" d="M68 1593l270 189l272 -195l-88 -104l-182 112l-184 -110zM184 0v1393h312v-1393h-312z" />
<glyph unicode="&#xcf;" horiz-adv-x="681" d="M31 1503v207h213v-207h-213zM184 0v1393h312v-1393h-312zM444 1503v207h211v-207h-211z" />
<glyph unicode="&#xd0;" horiz-adv-x="1622" d="M55 596v223h213v608h592q135 0 258.5 -31t223.5 -89.5t159.5 -154.5t59.5 -216v-428q0 -107 -37 -193.5t-100.5 -144.5t-153.5 -96.5t-192.5 -56t-219.5 -17.5h-590v596h-213zM580 252h278q391 0 391 272v394q0 65 -34.5 115t-91.5 79.5t-124 44t-139 14.5h-278v-352h370 v-223h-372v-344z" />
<glyph unicode="&#xd1;" horiz-adv-x="1679" d="M160 0v1393h295l776 -979v979h289v-1393h-295l-776 985v-985h-289zM494 1581q91 144 215 144q47 0 139 -40t127 -40q29 0 52 12t33 24t22 31l102 -73q-1 -2 -12 -21t-17.5 -28.5t-20 -28.5t-27 -30t-30.5 -23.5t-38 -18.5t-43 -6q-52 0 -149 41t-153 41q-51 0 -106 -70z " />
<glyph unicode="&#xd2;" horiz-adv-x="1638" d="M135 492v426q0 152 86.5 265.5t236.5 171.5t343 58h33q187 0 338 -59t240 -172.5t89 -263.5v-426q0 -165 -86.5 -282t-235 -173.5t-345.5 -56.5h-31q-201 0 -349.5 56t-233.5 172.5t-85 283.5zM449 526q0 -147 93 -220t261 -73h31q168 0 261 73t93 220v355q0 132 -98 204 t-256 72h-33q-158 0 -255 -73.5t-97 -200.5v-357zM532 1800l197 107l223 -316l-139 -82z" />
<glyph unicode="&#xd3;" horiz-adv-x="1638" d="M135 492v426q0 152 86.5 265.5t236.5 171.5t343 58h33q187 0 338 -59t240 -172.5t89 -263.5v-426q0 -165 -86.5 -282t-235 -173.5t-345.5 -56.5h-31q-201 0 -349.5 56t-233.5 172.5t-85 283.5zM449 526q0 -147 93 -220t261 -73h31q168 0 261 73t93 220v355q0 132 -98 204 t-256 72h-33q-158 0 -255 -73.5t-97 -200.5v-357zM673 1581l236 324l188 -104l-280 -289z" />
<glyph unicode="&#xd4;" horiz-adv-x="1638" d="M135 492v426q0 152 86.5 265.5t236.5 171.5t343 58h33q187 0 338 -59t240 -172.5t89 -263.5v-426q0 -165 -86.5 -282t-235 -173.5t-345.5 -56.5h-31q-201 0 -349.5 56t-233.5 172.5t-85 283.5zM449 526q0 -147 93 -220t261 -73h31q168 0 261 73t93 220v355q0 132 -98 204 t-256 72h-33q-158 0 -255 -73.5t-97 -200.5v-357zM543 1614l270 188l272 -194l-88 -105l-182 113l-184 -111z" />
<glyph unicode="&#xd5;" horiz-adv-x="1638" d="M135 492v426q0 152 86.5 265.5t236.5 171.5t343 58h33q187 0 338 -59t240 -172.5t89 -263.5v-426q0 -165 -86.5 -282t-235 -173.5t-345.5 -56.5h-31q-201 0 -349.5 56t-233.5 172.5t-85 283.5zM449 526q0 -147 93 -220t261 -73h31q168 0 261 73t93 220v355q0 132 -98 204 t-256 72h-33q-158 0 -255 -73.5t-97 -200.5v-357zM469 1602q91 143 215 143q47 0 139 -40t127 -40q29 0 52 12.5t33 24t22 31.5l102 -74q-1 -2 -12 -21t-17.5 -28.5t-20 -28.5t-27 -30t-30.5 -23.5t-38 -18.5t-43 -6q-52 0 -148.5 41t-152.5 41q-53 0 -107 -69z" />
<glyph unicode="&#xd6;" horiz-adv-x="1638" d="M135 492v426q0 152 86.5 265.5t236.5 171.5t343 58h33q187 0 338 -59t240 -172.5t89 -263.5v-426q0 -165 -86.5 -282t-235 -173.5t-345.5 -56.5h-31q-201 0 -349.5 56t-233.5 172.5t-85 283.5zM449 526q0 -147 93 -220t261 -73h31q168 0 261 73t93 220v355q0 132 -98 204 t-256 72h-33q-158 0 -255 -73.5t-97 -200.5v-357zM502 1523v207h213v-207h-213zM915 1523v207h211v-207h-211z" />
<glyph unicode="&#xd7;" horiz-adv-x="1273" d="M68 0l432 510l-416 494h244l297 -347l301 347h243l-415 -494l430 -510h-256l-303 358l-299 -358h-258z" />
<glyph unicode="&#xd8;" horiz-adv-x="1589" d="M121 492v426q0 152 86 265.5t236 171.5t343 58h33q117 0 236 -29l88 177h168l-113 -226q136 -65 212.5 -171.5t76.5 -245.5v-426q0 -246 -183.5 -379t-484.5 -133h-31q-135 0 -249 24l-74 -149h-180l102 202q-266 130 -266 435zM434 526q0 -138 82 -211l418 830 q-55 12 -115 12h-33q-158 0 -255 -73.5t-97 -200.5v-357zM659 246q63 -13 129 -13h31q168 0 261.5 73t93.5 220v355q0 128 -99 204z" />
<glyph unicode="&#xd9;" horiz-adv-x="1681" d="M160 504v889h309v-854q0 -100 52.5 -171t134 -103t182.5 -32q156 0 263 80t107 226v854h314v-889q0 -127 -54.5 -228.5t-148.5 -165t-215.5 -97t-261.5 -33.5q-143 0 -265.5 33t-216.5 96.5t-147 165t-53 229.5zM557 1780l197 106l223 -315l-139 -82z" />
<glyph unicode="&#xda;" horiz-adv-x="1681" d="M160 504v889h309v-854q0 -100 52.5 -171t134 -103t182.5 -32q156 0 263 80t107 226v854h314v-889q0 -127 -54.5 -228.5t-148.5 -165t-215.5 -97t-261.5 -33.5q-143 0 -265.5 33t-216.5 96.5t-147 165t-53 229.5zM700 1560l236 324l188 -104l-280 -289z" />
<glyph unicode="&#xdb;" horiz-adv-x="1681" d="M160 504v889h309v-854q0 -100 52.5 -171t134 -103t182.5 -32q156 0 263 80t107 226v854h314v-889q0 -127 -54.5 -228.5t-148.5 -165t-215.5 -97t-261.5 -33.5q-143 0 -265.5 33t-216.5 96.5t-147 165t-53 229.5zM567 1593l271 189l272 -195l-88 -104l-182 112l-185 -110z " />
<glyph unicode="&#xdc;" horiz-adv-x="1681" d="M160 504v889h309v-854q0 -100 52.5 -171t134 -103t182.5 -32q156 0 263 80t107 226v854h314v-889q0 -127 -54.5 -228.5t-148.5 -165t-215.5 -97t-261.5 -33.5q-143 0 -265.5 33t-216.5 96.5t-147 165t-53 229.5zM527 1503v207h213v-207h-213zM940 1503v207h211v-207h-211 z" />
<glyph unicode="&#xdd;" horiz-adv-x="1632" d="M80 1393h379l354 -584l356 584h381l-581 -881v-512h-316v514zM675 1560l236 324l188 -104l-280 -289z" />
<glyph unicode="&#xde;" horiz-adv-x="1304" d="M59 0v1393h312v-252h381q230 0 361.5 -108t131.5 -294v-39q0 -187 -128.5 -284t-364.5 -97h-381v-319h-312zM371 573h352q108 0 158.5 36t50.5 98v32q0 64 -54.5 108t-156.5 44h-350v-318z" />
<glyph unicode="&#xe0;" d="M145 311v238l816 86v35q0 69 -67.5 105t-191.5 36q-159 0 -409 -86l-88 205q103 56 251.5 95.5t270.5 39.5q254 0 398.5 -101.5t144.5 -293.5v-670h-252l-29 100q-115 -112 -385 -112q-222 0 -340.5 85.5t-118.5 237.5zM406 1487l196 106l223 -315l-139 -82zM457 348 q0 -133 225 -133q62 0 122 15t104 46.5t44 73.5v96l-495 -59v-39z" />
<glyph unicode="&#xe1;" d="M145 311v238l816 86v35q0 69 -67.5 105t-191.5 36q-159 0 -409 -86l-88 205q103 56 251.5 95.5t270.5 39.5q254 0 398.5 -101.5t144.5 -293.5v-670h-252l-29 100q-115 -112 -385 -112q-222 0 -340.5 85.5t-118.5 237.5zM457 348q0 -133 225 -133q62 0 122 15t104 46.5 t44 73.5v96l-495 -59v-39zM549 1270l235 323l189 -104l-281 -289z" />
<glyph unicode="&#xe2;" d="M145 311v238l816 86v35q0 69 -67.5 105t-191.5 36q-159 0 -409 -86l-88 205q103 56 251.5 95.5t270.5 39.5q254 0 398.5 -101.5t144.5 -293.5v-670h-252l-29 100q-115 -112 -385 -112q-222 0 -340.5 85.5t-118.5 237.5zM416 1300l270 189l272 -195l-88 -104l-182 113 l-184 -111zM457 348q0 -133 225 -133q62 0 122 15t104 46.5t44 73.5v96l-495 -59v-39z" />
<glyph unicode="&#xe3;" d="M145 311v238l816 86v35q0 69 -67.5 105t-191.5 36q-159 0 -409 -86l-88 205q103 56 251.5 95.5t270.5 39.5q254 0 398.5 -101.5t144.5 -293.5v-670h-252l-29 100q-115 -112 -385 -112q-222 0 -340.5 85.5t-118.5 237.5zM342 1290q91 144 215 144q47 0 139 -40t127 -40 q29 0 52 12t33 24t22 31l102 -73q-1 -2 -12 -21t-17.5 -28.5t-20 -28.5t-27 -30t-30.5 -23.5t-38 -18.5t-43 -6q-52 0 -148.5 41t-152.5 41q-52 0 -107 -70zM457 348q0 -133 225 -133q62 0 122 15t104 46.5t44 73.5v96l-495 -59v-39z" />
<glyph unicode="&#xe4;" d="M145 311v238l816 86v35q0 69 -67.5 105t-191.5 36q-159 0 -409 -86l-88 205q103 56 251.5 95.5t270.5 39.5q254 0 398.5 -101.5t144.5 -293.5v-670h-252l-29 100q-115 -112 -385 -112q-222 0 -340.5 85.5t-118.5 237.5zM375 1212v207h213v-207h-213zM457 348 q0 -133 225 -133q62 0 122 15t104 46.5t44 73.5v96l-495 -59v-39zM788 1212v207h211v-207h-211z" />
<glyph unicode="&#xe5;" d="M145 311v238l816 86v35q0 69 -67.5 105t-191.5 36q-159 0 -409 -86l-88 205q103 56 251.5 95.5t270.5 39.5q254 0 398.5 -101.5t144.5 -293.5v-670h-252l-29 100q-115 -112 -385 -112q-222 0 -340.5 85.5t-118.5 237.5zM457 348q0 -133 225 -133q62 0 122 15t104 46.5 t44 73.5v96l-495 -59v-39zM522 1352q0 66 48 111.5t114 45.5q70 0 119 -45t49 -112q0 -66 -49.5 -113t-118.5 -47q-65 0 -113.5 47.5t-48.5 112.5zM608 1350q0 -32 23 -54t55 -22q34 0 58 22t24 54q0 34 -24 58t-58 24q-32 0 -55 -24t-23 -58z" />
<glyph unicode="&#xe6;" horiz-adv-x="2125" d="M59 338v219l822 74v76q0 133 -277 133q-144 0 -393 -76l-76 192q103 55 240.5 92t257.5 37q279 0 403 -131q77 62 198.5 96.5t268.5 34.5q248 0 398.5 -101.5t150.5 -268.5v-228l-831 -51v-45q0 -73 85 -114t244 -41q110 0 227 31t183 69l108 -193q-231 -157 -532 -157 q-413 0 -557 192q-65 -97 -181 -144.5t-261 -47.5q-220 0 -349 94.5t-129 257.5zM354 348q0 -62 74.5 -97.5t192.5 -35.5q106 0 184 38t78 109v82l-529 -45v-51zM1221 629l548 35v65q0 61 -72.5 92t-199.5 31q-113 0 -194.5 -38t-81.5 -99v-86z" />
<glyph unicode="&#xe7;" horiz-adv-x="1247" d="M131 414v213q0 202 162.5 320t423.5 118q144 0 244.5 -25.5t201.5 -81.5l-100 -223q-139 74 -320 74q-132 0 -215.5 -59t-83.5 -158v-143q0 -106 87.5 -161t226.5 -55q177 0 323 64l84 -215q-149 -95 -401 -102l-23 -99q18 -6 34 -13t41.5 -23.5t43.5 -36.5t31.5 -53 t13.5 -72q0 -156 -274 -242l-72 119q1 0 16 6.5t24.5 11t26.5 13.5t28.5 18t23.5 20t18 24.5t6 27.5q0 52 -35 80t-106 42l35 185q-217 24 -341 132t-124 294z" />
<glyph unicode="&#xe8;" d="M111 385v297q0 112 86 201t221.5 135.5t290.5 46.5q151 0 279 -45.5t208 -134.5t80 -203v-240h-852v-36q0 -61 42 -101.5t110.5 -57t162.5 -16.5q249 0 426 72l92 -207q-211 -108 -538 -108q-122 0 -230 25.5t-193 73.5t-135 125t-50 173zM408 1489l197 106l223 -315 l-139 -82zM426 637h561v25q0 53 -42.5 91.5t-104 56t-131.5 17.5q-67 0 -130 -19t-106.5 -57.5t-46.5 -88.5v-25z" />
<glyph unicode="&#xe9;" d="M111 385v297q0 112 86 201t221.5 135.5t290.5 46.5q151 0 279 -45.5t208 -134.5t80 -203v-240h-852v-36q0 -61 42 -101.5t110.5 -57t162.5 -16.5q249 0 426 72l92 -207q-211 -108 -538 -108q-122 0 -230 25.5t-193 73.5t-135 125t-50 173zM426 637h561v25 q0 53 -42.5 91.5t-104 56t-131.5 17.5q-67 0 -130 -19t-106.5 -57.5t-46.5 -88.5v-25zM551 1271l236 324l188 -104l-280 -289z" />
<glyph unicode="&#xea;" d="M111 385v297q0 112 86 201t221.5 135.5t290.5 46.5q151 0 279 -45.5t208 -134.5t80 -203v-240h-852v-36q0 -61 42 -101.5t110.5 -57t162.5 -16.5q249 0 426 72l92 -207q-211 -108 -538 -108q-122 0 -230 25.5t-193 73.5t-135 125t-50 173zM418 1303l270 188l273 -194 l-89 -105l-182 113l-184 -111zM426 637h561v25q0 53 -42.5 91.5t-104 56t-131.5 17.5q-67 0 -130 -19t-106.5 -57.5t-46.5 -88.5v-25z" />
<glyph unicode="&#xeb;" d="M111 385v297q0 112 86 201t221.5 135.5t290.5 46.5q151 0 279 -45.5t208 -134.5t80 -203v-240h-852v-36q0 -61 42 -101.5t110.5 -57t162.5 -16.5q249 0 426 72l92 -207q-211 -108 -538 -108q-122 0 -230 25.5t-193 73.5t-135 125t-50 173zM379 1214v207h213v-207h-213z M426 637h561v25q0 53 -42.5 91.5t-104 56t-131.5 17.5q-67 0 -130 -19t-106.5 -57.5t-46.5 -88.5v-25zM793 1214v207h211v-207h-211z" />
<glyph unicode="&#xec;" horiz-adv-x="571" d="M-4 1473l197 106l223 -315l-140 -82zM121 0v1061h313v-1061h-313z" />
<glyph unicode="&#xed;" horiz-adv-x="571" d="M121 0v1061h313v-1061h-313zM137 1253l236 324l188 -104l-280 -289z" />
<glyph unicode="&#xee;" horiz-adv-x="571" d="M6 1286l270 189l273 -195l-88 -104l-182 112l-185 -110zM121 0v1061h313v-1061h-313z" />
<glyph unicode="&#xef;" horiz-adv-x="571" d="M-33 1198v207h213v-207h-213zM121 0v1061h313v-1061h-313zM380 1198v207h211v-207h-211z" />
<glyph unicode="&#xf0;" horiz-adv-x="1308" d="M59 395v142q0 181 135 297t361 116q100 0 207.5 -23t171.5 -69q-38 87 -111 167.5t-166 141.5l-292 -131l-72 129l217 97q-96 55 -180 79l135 199q215 -62 364 -172l279 121l70 -133l-222 -96q143 -131 217 -274.5t74 -330.5v-260q0 -124 -81 -219.5t-217.5 -145.5 t-303.5 -50q-158 0 -290.5 49.5t-214 145.5t-81.5 220zM371 430q0 -86 82.5 -141.5t193.5 -55.5t198 55.5t87 139.5v96q0 77 -83 123.5t-206 46.5q-111 0 -191.5 -53.5t-80.5 -138.5v-72z" />
<glyph unicode="&#xf1;" horiz-adv-x="1470" d="M139 0v1044h244l31 -182q175 203 440 203q479 0 479 -414v-651h-311v614q0 197 -270 197q-116 0 -207.5 -56t-91.5 -137v-618h-314zM387 1292q91 144 215 144q47 0 139 -40t127 -40q29 0 52 12t33 24t22 31l102 -73q-1 -2 -12 -21t-17.5 -28.5t-20 -28.5t-27 -30 t-30.5 -23.5t-38 -18.5t-43 -6q-52 0 -149 41t-153 41q-51 0 -106 -70z" />
<glyph unicode="&#xf2;" horiz-adv-x="1423" d="M111 418v211q0 200 169 318t437 118q272 0 432 -117t160 -319v-211q0 -133 -84 -234t-217.5 -151.5t-292.5 -50.5q-166 0 -302 50.5t-219 151t-83 234.5zM422 1489l196 106l224 -315l-140 -82zM424 453q0 -104 83 -162t208 -58q117 0 199.5 59t82.5 161v141 q0 102 -82 158.5t-198 56.5q-122 0 -207.5 -59t-85.5 -156v-141z" />
<glyph unicode="&#xf3;" horiz-adv-x="1423" d="M111 418v211q0 200 169 318t437 118q272 0 432 -117t160 -319v-211q0 -133 -84 -234t-217.5 -151.5t-292.5 -50.5q-166 0 -302 50.5t-219 151t-83 234.5zM424 453q0 -104 83 -162t208 -58q117 0 199.5 59t82.5 161v141q0 102 -82 158.5t-198 56.5q-122 0 -207.5 -59 t-85.5 -156v-141zM567 1271l236 324l188 -104l-280 -289z" />
<glyph unicode="&#xf4;" horiz-adv-x="1423" d="M111 418v211q0 200 169 318t437 118q272 0 432 -117t160 -319v-211q0 -133 -84 -234t-217.5 -151.5t-292.5 -50.5q-166 0 -302 50.5t-219 151t-83 234.5zM424 453q0 -104 83 -162t208 -58q117 0 199.5 59t82.5 161v141q0 102 -82 158.5t-198 56.5q-122 0 -207.5 -59 t-85.5 -156v-141zM436 1303l271 188l272 -195l-88 -104l-182 113l-185 -111z" />
<glyph unicode="&#xf5;" horiz-adv-x="1423" d="M111 418v211q0 200 169 318t437 118q272 0 432 -117t160 -319v-211q0 -133 -84 -234t-217.5 -151.5t-292.5 -50.5q-166 0 -302 50.5t-219 151t-83 234.5zM362 1292q91 144 216 144q47 0 139 -40t127 -40q29 0 52 12t32.5 23.5t21.5 31.5l103 -73q-1 -1 -12.5 -21 t-17.5 -28.5t-20 -28.5t-27 -30.5t-30.5 -23t-38.5 -18.5t-43 -6q-52 0 -148.5 41t-152.5 41q-51 0 -106 -70zM424 453q0 -104 83 -162t208 -58q117 0 199.5 59t82.5 161v141q0 102 -82 158.5t-198 56.5q-122 0 -207.5 -59t-85.5 -156v-141z" />
<glyph unicode="&#xf6;" horiz-adv-x="1423" d="M111 418v211q0 200 169 318t437 118q272 0 432 -117t160 -319v-211q0 -133 -84 -234t-217.5 -151.5t-292.5 -50.5q-166 0 -302 50.5t-219 151t-83 234.5zM393 1214v207h213v-207h-213zM424 453q0 -104 83 -162t208 -58q117 0 199.5 59t82.5 161v141q0 102 -82 158.5 t-198 56.5q-122 0 -207.5 -59t-85.5 -156v-141zM806 1214v207h211v-207h-211z" />
<glyph unicode="&#xf7;" horiz-adv-x="1437" d="M96 477v172h1247v-172h-1247zM592 106v252h272v-252h-272zM592 760v250h272v-250h-272z" />
<glyph unicode="&#xf8;" horiz-adv-x="1370" d="M100 418v211q0 200 169.5 318t437.5 118q111 0 202 -21l78 138h139l-98 -174q130 -53 200 -150.5t70 -228.5v-211q0 -133 -83.5 -234t-217 -151.5t-292.5 -50.5q-116 0 -236 30l-84 -149h-149l110 194q-116 56 -181 148t-65 213zM414 453q0 -95 69 -154l289 504 q-35 6 -65 6q-122 0 -207.5 -59t-85.5 -156v-141zM600 246q54 -13 105 -13q117 0 199.5 59t82.5 161v141q0 109 -96 168z" />
<glyph unicode="&#xf9;" horiz-adv-x="1447" d="M133 416v628h313v-593q0 -104 78 -161t201 -57q117 0 199 60t82 158v593h309v-628q0 -135 -80.5 -235.5t-213 -150.5t-296.5 -50q-168 0 -300.5 50t-212 150t-79.5 236zM436 1468l197 107l223 -315l-139 -82z" />
<glyph unicode="&#xfa;" horiz-adv-x="1447" d="M133 416v628h313v-593q0 -104 78 -161t201 -57q117 0 199 60t82 158v593h309v-628q0 -135 -80.5 -235.5t-213 -150.5t-296.5 -50q-168 0 -300.5 50t-212 150t-79.5 236zM577 1251l236 324l188 -104l-280 -289z" />
<glyph unicode="&#xfb;" horiz-adv-x="1447" d="M133 416v628h313v-593q0 -104 78 -161t201 -57q117 0 199 60t82 158v593h309v-628q0 -135 -80.5 -235.5t-213 -150.5t-296.5 -50q-168 0 -300.5 50t-212 150t-79.5 236zM449 1282l270 188l272 -194l-88 -105l-182 113l-184 -110z" />
<glyph unicode="&#xfc;" horiz-adv-x="1447" d="M133 416v628h313v-593q0 -104 78 -161t201 -57q117 0 199 60t82 158v593h309v-628q0 -135 -80.5 -235.5t-213 -150.5t-296.5 -50q-168 0 -300.5 50t-212 150t-79.5 236zM410 1196v207h213v-207h-213zM823 1196v207h211v-207h-211z" />
<glyph unicode="&#xfd;" horiz-adv-x="1353" d="M55 1044h330l277 -739l303 739h329l-522 -1167q-79 -176 -221.5 -252.5t-366.5 -79.5l-34 232q128 2 215 40.5t118 114.5l21 54zM532 1253l236 324l188 -104l-280 -289z" />
<glyph unicode="&#xfe;" horiz-adv-x="1462" d="M135 -455v1866h311l3 -489q82 73 172.5 108t209.5 35q233 0 376 -113t143 -301v-245q0 -192 -143.5 -309t-375.5 -117q-138 0 -229.5 31t-171.5 100v-566h-295zM465 389q0 -77 85 -125.5t204 -48.5q74 0 136 21.5t104 70t42 115.5v203q0 105 -76.5 153.5t-205.5 48.5 q-117 0 -203 -49.5t-86 -126.5v-262z" />
<glyph unicode="&#xff;" horiz-adv-x="1353" d="M55 1044h330l277 -739l303 739h329l-522 -1167q-79 -176 -221.5 -252.5t-366.5 -79.5l-34 232q128 2 215 40.5t118 114.5l21 54zM362 1196v207h213v-207h-213zM776 1196v207h211v-207h-211z" />
<glyph unicode="&#x152;" horiz-adv-x="1933" d="M20 512v371q0 130 92 247.5t246 189t324 71.5h1384v-254h-712v-291h624v-246h-622v-346h755v-254h-1425q-183 0 -336.5 69.5t-241.5 187t-88 255.5zM334 547q0 -131 100 -212t252 -81h352v883h-356q-137 0 -242.5 -85.5t-105.5 -203.5v-301z" />
<glyph unicode="&#x153;" horiz-adv-x="2172" d="M111 387v303q0 181 140.5 284t379.5 103q89 0 171 -13.5t168 -56t128 -110.5q65 88 174.5 137t238.5 49q242 0 393.5 -94t151.5 -270v-213l-776 -86v-60q0 -68 90 -105.5t205 -37.5q94 0 208.5 21t182.5 51l105 -185q-213 -110 -510 -110q-338 0 -469 192 q-60 -104 -184 -151t-273 -47q-238 0 -381 108t-143 291zM424 406q0 -74 77 -120t185 -46q94 0 165.5 42.5t80.5 110.5v291q-4 67 -77.5 107t-170.5 40q-108 0 -184 -44t-76 -115v-266zM1278 610l465 43l-2 62q0 54 -63.5 85t-147.5 31q-99 -3 -171.5 -39.5t-78.5 -95.5z " />
<glyph unicode="&#x178;" horiz-adv-x="1632" d="M80 1393h379l354 -584l356 584h381l-581 -881v-512h-316v514zM502 1503v207h213v-207h-213zM915 1503v207h211v-207h-211z" />
<glyph unicode="&#x2c6;" horiz-adv-x="782" d="M119 1280l270 188l273 -194l-89 -105l-182 113l-184 -111z" />
<glyph unicode="&#x2dc;" horiz-adv-x="929" d="M119 1290q91 144 215 144q47 0 139 -40t127 -40q29 0 52 12t33 24t22 31l102 -73q-1 -2 -12 -21t-17.5 -28.5t-20 -28.5t-27 -30t-30.5 -23.5t-38 -18.5t-43 -6q-52 0 -149 41t-153 41q-51 0 -106 -70z" />
<glyph unicode="&#x2000;" horiz-adv-x="953" />
<glyph unicode="&#x2001;" horiz-adv-x="1907" />
<glyph unicode="&#x2002;" horiz-adv-x="953" />
<glyph unicode="&#x2003;" horiz-adv-x="1907" />
<glyph unicode="&#x2004;" horiz-adv-x="635" />
<glyph unicode="&#x2005;" horiz-adv-x="476" />
<glyph unicode="&#x2006;" horiz-adv-x="317" />
<glyph unicode="&#x2007;" horiz-adv-x="317" />
<glyph unicode="&#x2008;" horiz-adv-x="238" />
<glyph unicode="&#x2009;" horiz-adv-x="381" />
<glyph unicode="&#x200a;" horiz-adv-x="105" />
<glyph unicode="&#x2010;" horiz-adv-x="761" d="M96 481v240h568v-240h-568z" />
<glyph unicode="&#x2011;" horiz-adv-x="761" d="M96 481v240h568v-240h-568z" />
<glyph unicode="&#x2012;" horiz-adv-x="761" d="M96 481v240h568v-240h-568z" />
<glyph unicode="&#x2013;" horiz-adv-x="1261" d="M14 500v227h1223v-227h-1223z" />
<glyph unicode="&#x2014;" horiz-adv-x="1701" d="M16 504v223h1665v-223h-1665z" />
<glyph unicode="&#x2018;" horiz-adv-x="352" d="M78 977v55q0 158 40.5 265t100.5 157l117 -70q-55 -98 -55 -278v-129h-203z" />
<glyph unicode="&#x2019;" horiz-adv-x="372" d="M6 1053q26 36 41.5 64.5t30 84t14.5 123.5v127h258v-55q0 -86 -18 -158t-50 -123t-58 -80t-60 -59z" />
<glyph unicode="&#x201a;" horiz-adv-x="516" d="M147 -207q26 36 41.5 65t30 84.5t14.5 123.5v127h259v-56q0 -86 -18 -158t-50.5 -123t-58 -80t-60.5 -59z" />
<glyph unicode="&#x201c;" horiz-adv-x="700" d="M78 977v55q0 158 40.5 265t100.5 157l117 -70q-55 -98 -55 -278v-129h-203zM406 977v55q0 158 40.5 265t100.5 157l117 -70q-56 -100 -56 -278v-129h-202z" />
<glyph unicode="&#x201d;" horiz-adv-x="702" d="M6 993q26 36 41.5 65t30 84.5t14.5 123.5v127h258v-56q0 -70 -13.5 -132t-31.5 -103.5t-46 -80.5t-48 -59.5t-47 -43.5zM336 993q26 36 41.5 65t30 84.5t14.5 123.5v127h258v-56q0 -70 -13.5 -132t-31.5 -103.5t-46 -80.5t-48 -59.5t-47 -43.5z" />
<glyph unicode="&#x201e;" horiz-adv-x="909" d="M147 -205q26 36 41.5 65t30 84.5t14.5 123.5v127h259v-56q0 -86 -18 -158t-50.5 -123t-58 -80t-60.5 -59zM489 -203q26 36 41.5 65t30 84.5t14.5 123.5v127h259v-56q0 -86 -18 -158t-50.5 -123t-58 -80t-60.5 -59z" />
<glyph unicode="&#x2022;" horiz-adv-x="720" d="M143 342v416h432v-416h-432z" />
<glyph unicode="&#x2026;" horiz-adv-x="1695" d="M143 0v260h281v-260h-281zM709 0v260h280v-260h-280zM1272 0v260h280v-260h-280z" />
<glyph unicode="&#x202f;" horiz-adv-x="381" />
<glyph unicode="&#x2039;" horiz-adv-x="614" d="M78 356l334 371l102 -82l-199 -285l199 -272l-102 -88z" />
<glyph unicode="&#x203a;" horiz-adv-x="614" d="M96 645l103 82l333 -371l-333 -356l-101 88l199 272z" />
<glyph unicode="&#x205f;" horiz-adv-x="476" />
<glyph unicode="&#x20ac;" horiz-adv-x="1435" d="M57 504v135h219v127h-219v133h219q0 155 89.5 273.5t235 179.5t321.5 61q177 0 300.5 -32t239.5 -107l-114 -225q-173 100 -406 100q-92 0 -170 -28.5t-128.5 -86.5t-55.5 -135h518v-133h-518v-127h518v-135h-518q3 -132 99 -197t257 -65q251 0 399 94l105 -232 q-111 -68 -228 -96t-296 -28q-141 0 -258.5 32.5t-205 96t-136 162.5t-48.5 225v8h-219z" />
<glyph unicode="&#x2122;" horiz-adv-x="1163" d="M76 1333v101h401v-101h-143v-336h-115v336h-143zM565 1004v430h117l109 -181l110 181h121v-430h-117v249l-94 -157h-39l-92 159v-251h-115z" />
<glyph unicode="&#x25fc;" horiz-adv-x="1044" d="M0 0v1044h1044v-1044h-1044z" />
<glyph unicode="&#xfb03;" horiz-adv-x="2476" d="M51 852v192h156v109q0 108 66 184.5t168.5 111t228.5 34.5q162 0 332 -21.5t292 -56.5q124 78 318 78q164 0 334 -21.5t292 -56.5l-49 -215q-274 51 -516 51q-114 0 -164.5 -34t-50.5 -111v-52h283v-192h-283v-852h-309v852h-156v192h156v109q0 17 4 53q-231 35 -422 35 q-114 0 -164.5 -34t-50.5 -111v-52h283v-192h-283v-852h-309v852h-156zM1999 0v1061h313v-1061h-313z" />
<glyph unicode="&#xfb04;" horiz-adv-x="2496" d="M51 852v192h156v109q0 108 66 184.5t168.5 111t228.5 34.5q159 0 326 -21t290 -55q125 76 313 76q335 0 599 -70h131v-1413h-310v1217q-175 24 -358 24q-114 0 -164.5 -34t-50.5 -111v-52h283v-192h-283v-852h-309v852h-156v192h156v109q0 19 4 55q-215 33 -410 33 q-114 0 -164.5 -34t-50.5 -111v-52h283v-192h-283v-852h-309v852h-156z" />
</font>
</defs>
</svg>
